<svg width="248" height="275" viewBox="0 0 248 275" fill="none" xmlns="http://www.w3.org/2000/svg">
<path d="M241.924 15.4833C240.562 16.2263 238.457 17.4029 235.608 19.0129C233.131 20.3751 229.726 22.3567 225.391 24.9574C221.18 27.4343 215.669 30.6543 208.858 34.6173C210.963 31.8927 211.892 29.9731 211.644 28.8585C211.52 27.6201 210.963 26.8151 209.972 26.4435C208.734 25.9482 207.062 25.8862 204.957 26.2578C203.718 26.5055 201.056 26.8151 196.969 27.1866C192.882 27.4343 187.742 27.682 181.55 27.9297C175.482 28.1774 168.546 28.4251 160.744 28.6727C152.942 28.9204 144.706 29.1062 136.037 29.23C135.542 49.9121 135.108 68.4269 134.737 84.7744C134.365 101.122 133.994 115.612 133.622 128.244C133.374 140.876 133.127 151.836 132.879 161.125C132.755 170.413 132.631 178.339 132.507 184.903C132.136 200.26 131.95 210.91 131.95 216.855C131.826 221.437 131.207 225.957 130.092 230.416C129.102 234.255 127.616 238.404 125.634 242.862C123.653 247.197 120.804 251.16 117.089 254.751C119.442 254.999 121.671 255.185 123.776 255.309C125.882 255.309 127.987 255.309 130.092 255.309C135.913 255.309 141.115 255.061 145.697 254.566C150.403 253.946 154.428 253.327 157.772 252.708C161.116 252.089 163.778 251.469 165.76 250.85C167.865 250.231 169.165 249.798 169.661 249.55C163.097 254.008 157.648 257.847 153.313 261.067C148.979 264.287 145.078 266.95 141.61 269.055C138.142 271.037 134.737 272.523 131.393 273.514C128.049 274.505 124.148 275 119.69 275C113.745 275 108.667 274.752 104.457 274.257C100.37 273.762 96.2209 273.514 92.0102 273.514C89.9048 273.514 87.7375 273.638 85.5083 273.885C83.403 274.009 80.988 274.381 78.2634 275C81.7311 272.028 84.8891 268.808 87.7375 265.34C90.7098 261.749 93.1867 257.414 95.1682 252.336C97.1498 247.259 98.6978 241.19 99.8124 234.131C100.927 227.072 101.484 218.527 101.484 208.495V30.3447C90.7098 30.5923 80.1211 30.84 69.7181 31.0877C59.439 31.3354 50.1507 31.5831 41.8531 31.8308C33.5555 31.9546 26.5582 32.1404 20.8614 32.3881C15.2884 32.6358 11.7588 32.8215 10.2726 32.9454C6.80499 33.3169 4.3281 33.1931 2.84196 32.5739C1.35582 31.9546 0.674675 31.0258 0.79852 29.7874C0.922364 28.4251 1.8512 26.8151 3.58503 24.9574C5.19501 23.0997 7.42421 21.1182 10.2726 19.0129L35.7227 0.621906C33.8651 2.85111 33.2458 4.52302 33.8651 5.63762C34.6081 6.75222 35.7227 7.61914 37.2089 8.23836C38.9427 8.85758 41.2338 9.22912 44.0823 9.35296C46.0638 9.35296 50.0887 9.29104 56.1571 9.1672C62.2255 9.04335 69.5943 8.91951 78.2634 8.79566C87.0564 8.54797 96.7782 8.3622 107.429 8.23836C118.08 7.99067 128.916 7.74298 139.938 7.49529C150.96 7.12376 161.797 6.81414 172.447 6.56646C183.098 6.31877 192.758 6.133 201.427 6.00915C210.22 5.76146 217.651 5.5757 223.719 5.45185C229.788 5.20416 233.812 5.0184 235.794 4.89455C239.633 4.77071 242.42 5.08032 244.153 5.82339C245.887 6.56646 246.816 7.55721 246.94 8.79566C247.188 10.0341 246.754 11.2726 245.64 12.511C244.649 13.7495 243.41 14.7402 241.924 15.4833ZM169.661 249.55V249.364C169.785 249.24 169.909 249.178 170.032 249.178L169.661 249.55Z" fill="white"/>
</svg>
